<svg xmlns="http://www.w3.org/2000/svg" width="99" height="98" viewBox="0 0 99 98"><g fill="#FFF" fill-rule="evenodd"><path d="M42.892 38.406a12.954 12.954 0 0 0-4.421-3.09c-1.709-.732-3.668-1.098-5.88-1.098-2.277 0-4.329.425-6.155 1.277-1.825.85-3.375 2-4.648 3.447-1.273 1.447-2.252 3.124-2.94 5.031A17.65 17.65 0 0 0 17.819 50c0 2.111.344 4.12 1.03 6.027.688 1.907 1.667 3.575 2.94 5.005 1.273 1.43 2.823 2.571 4.648 3.422 1.826.852 3.878 1.277 6.156 1.277 2.01 0 3.852-.221 5.527-.664 1.675-.442 3.032-1.004 4.07-1.685V52.4H33.9v-3.218h11.908v16.293a22.86 22.86 0 0 1-6.281 2.656A27.856 27.856 0 0 1 32.54 69c-2.68 0-5.158-.477-7.436-1.43-2.278-.954-4.238-2.273-5.88-3.958-1.64-1.686-2.922-3.686-3.843-6.002C14.46 55.295 14 52.758 14 50s.469-5.295 1.407-7.61c.938-2.316 2.236-4.316 3.894-6.002 1.658-1.685 3.618-3.004 5.88-3.958 2.26-.953 4.714-1.43 7.36-1.43 2.848 0 5.327.426 7.437 1.277 2.11.851 3.92 2.043 5.427 3.575l-2.513 2.554zM85 62.258a14.975 14.975 0 0 1-2.186 2.605 13.89 13.89 0 0 1-2.964 2.145 16.492 16.492 0 0 1-3.719 1.456c-1.356.357-2.839.536-4.447.536-2.68 0-5.158-.477-7.436-1.43-2.278-.954-4.238-2.273-5.88-3.958-1.64-1.686-2.922-3.686-3.843-6.002-.921-2.315-1.382-4.852-1.382-7.61s.469-5.295 1.407-7.61c.938-2.316 2.236-4.316 3.894-6.002 1.658-1.685 3.618-3.004 5.88-3.958 2.26-.953 4.714-1.43 7.36-1.43 1.307 0 2.588.136 3.844.409a18.03 18.03 0 0 1 3.543 1.149c1.105.494 2.11 1.09 3.015 1.787.904.698 1.658 1.49 2.26 2.375l-3.014 2.248c-.369-.58-.863-1.158-1.482-1.737a10.079 10.079 0 0 0-2.186-1.532 13.54 13.54 0 0 0-2.739-1.073 11.967 11.967 0 0 0-3.19-.408c-2.312 0-4.38.425-6.206 1.277-1.826.85-3.375 2-4.648 3.447-1.273 1.447-2.244 3.124-2.914 5.031-.67 1.907-1.005 3.916-1.005 6.027s.343 4.12 1.03 6.027 1.666 3.584 2.94 5.03c1.272 1.448 2.822 2.597 4.647 3.448 1.826.852 3.878 1.277 6.156 1.277a13.72 13.72 0 0 0 5.828-1.277c1.843-.85 3.384-2.213 4.623-4.086L85 62.26z"/><path fill-rule="nonzero" d="M3.536 3.542v90.916h91.928V3.542H3.536zM0 0h99v98H0V0z"/></g></svg>