<svg xmlns="http://www.w3.org/2000/svg" width="539" height="291" viewBox="0 0 539 291"><g fill="none" fill-rule="evenodd"><path stroke="#FF487A" stroke-dasharray="7,12" stroke-linecap="round" stroke-width="3" d="M2.337 68.333h180.465"/><path stroke="#23548C" stroke-dasharray="3,7" stroke-linecap="round" stroke-width="2" d="M385.346 289.5h125.456M23.337 266.333h124.426M403.34 1.667h128.463" opacity=".4"/><g transform="translate(153 3)"><path stroke="#FF487A" stroke-dasharray="7,12" stroke-linecap="round" stroke-width="3" d="M31.396 68.739L81.39 118.78"/><path stroke="#23548C" stroke-dasharray="3,7" stroke-linecap="round" stroke-width="2" d="M208.487 259.124l19.788 24.637M0 261.888l57.3-40.078M225.056 33.082L248.114.206" opacity=".4"/><path fill="#EDEDED" stroke="#F7F7F7" stroke-width="5" d="M133.239 6.91h.236c34.074 0 65.655 10.698 91.58 28.926L133.24 167.22V6.911z"/><path fill="#EDEDED" stroke="#F7F7F7" stroke-width="5" d="M133.239 28.331h.236C209.98 28.33 272 90.408 272 166.984v.237H133.239V28.331z"/><path fill="#EDEDED" stroke="#F7F7F7" stroke-width="5" d="M133.239 49.752h.236c64.686 0 117.124 52.442 117.124 117.132 0 37.452-17.576 70.798-44.928 92.24l-72.432-92.003V49.752z"/><path fill="#EDEDED" stroke="#F7F7F7" stroke-width="5" d="M54.538 220.725c17.21 25.266 46.195 41.854 79.05 41.854 52.804 0 95.61-42.848 95.61-95.703 0-52.855-42.806-95.703-95.61-95.703h-.236v95.849l-78.814 53.703z"/><path fill="#E6577D" stroke="#F7F7F7" stroke-width="5" d="M77.69 110.93c-14.304 14.318-23.152 34.098-23.152 55.946 0 43.696 35.39 79.12 79.046 79.12 43.655 0 79.045-35.424 79.045-79.12 0-43.696-35.39-79.12-79.045-79.12v79.12L77.69 110.93z"/><ellipse cx="133.584" cy="166.876" fill="#F7F7F7" rx="63.858" ry="63.917"/></g><path stroke="#23548C" stroke-dasharray="3,7" stroke-linecap="round" stroke-width="2" d="M428 167h110" opacity=".4"/></g></svg>