<svg xmlns="http://www.w3.org/2000/svg" width="72" height="77" viewBox="0 0 72 77"><g fill="#1D4472"><path d="M57.962 24.189a2.825 2.825 0 0 0-2.824 2.82v17.839a2.825 2.825 0 0 0 5.648 0v-17.84a2.825 2.825 0 0 0-2.824-2.82zm.613 20.659a.614.614 0 0 1-1.227 0v-17.84a.614.614 0 0 1 1.227 0v17.84z"/><path d="M68.03 0H3.97A3.957 3.957 0 0 0 .015 3.95v52.868a1.104 1.104 0 0 0 2.21 0V3.949c0-.96.783-1.742 1.745-1.742h64.06c.961 0 1.744.781 1.744 1.742v63.958c0 .96-.783 1.743-1.745 1.743H3.97a1.746 1.746 0 0 1-1.745-1.743v-3.989a1.104 1.104 0 0 0-2.21 0v3.99a3.957 3.957 0 0 0 3.956 3.948h2.144l.487 2.958A2.514 2.514 0 0 0 9.095 77h4.44c1.263 0 2.33-.938 2.493-2.186l.487-2.958h38.97l.487 2.958A2.514 2.514 0 0 0 58.465 77h4.44c1.263 0 2.33-.938 2.493-2.186l.487-2.958h2.144a3.957 3.957 0 0 0 3.956-3.949V3.95A3.957 3.957 0 0 0 68.029 0zM13.843 74.477a1.064 1.064 0 0 0-.007.048.304.304 0 0 1-.302.268h-4.44a.304.304 0 0 1-.302-.268.886.886 0 0 0-.007-.048l-.431-2.62h5.92l-.431 2.62zm49.37 0a1.064 1.064 0 0 0-.007.048.304.304 0 0 1-.302.268h-4.44a.304.304 0 0 1-.302-.268.886.886 0 0 0-.007-.048l-.431-2.62h5.92l-.431 2.62z"/><path d="M36 18.873c-9.42 0-17.083 7.65-17.083 17.055S26.581 52.984 36 52.984c9.419 0 17.082-7.651 17.082-17.056 0-9.404-7.663-17.055-17.082-17.055zm0 31.904c-8.2 0-14.872-6.661-14.872-14.849 0-8.187 6.671-14.848 14.872-14.848 8.2 0 14.872 6.66 14.872 14.848S44.2 50.777 36 50.777z"/><path d="M64 14.32c.61 0 1.104-.493 1.104-1.102v-2.831a3.558 3.558 0 0 0-3.557-3.552H10.383a3.558 3.558 0 0 0-3.557 3.552v5.778h-.414a1.934 1.934 0 0 0-1.934 1.93v4.68c0 1.064.867 1.93 1.934 1.93h.414v22.446h-.414a1.934 1.934 0 0 0-1.934 1.93v4.68c0 1.065.867 1.93 1.934 1.93h.414v5.779a3.558 3.558 0 0 0 3.557 3.552h51.164a3.558 3.558 0 0 0 3.557-3.552V20.215a1.104 1.104 0 0 0-2.21 0V61.47c0 .742-.604 1.345-1.347 1.345H10.383a1.348 1.348 0 0 1-1.347-1.345v-5.778h.56a1.934 1.934 0 0 0 1.934-1.93v-4.68c0-1.065-.868-1.93-1.934-1.93h-.56V24.705h.56a1.934 1.934 0 0 0 1.934-1.93v-4.68c0-1.064-.868-1.93-1.934-1.93h-.56v-5.778c0-.742.604-1.345 1.347-1.345h51.164c.743 0 1.347.603 1.347 1.345v2.83c0 .61.495 1.104 1.105 1.104zM9.32 49.359v4.127H6.688v-4.127h2.63zm0-30.986v4.126H6.688v-4.126h2.63z"/><path d="M36 23.201c-7.029 0-12.747 5.71-12.747 12.727 0 7.018 5.718 12.727 12.747 12.727 7.028 0 12.747-5.71 12.747-12.727S43.029 23.201 36 23.201zm10.478 11.624h-2.86a7.642 7.642 0 0 0-1.451-3.493l2.02-2.017a10.463 10.463 0 0 1 2.291 5.51zm-9.373-9.358a10.496 10.496 0 0 1 5.518 2.288l-2.02 2.016a7.667 7.667 0 0 0-3.498-1.448v-2.856zm-2.21 0v2.856a7.666 7.666 0 0 0-3.498 1.448l-2.02-2.016a10.493 10.493 0 0 1 5.518-2.288zm-7.082 3.848l2.02 2.017a7.64 7.64 0 0 0-1.451 3.493h-2.86a10.463 10.463 0 0 1 2.291-5.51zm-2.291 7.717h2.86a7.641 7.641 0 0 0 1.451 3.493l-2.02 2.016a10.46 10.46 0 0 1-2.291-5.51zm9.373 9.358a10.496 10.496 0 0 1-5.518-2.288l2.02-2.017a7.665 7.665 0 0 0 3.498 1.449v2.856zM30.51 35.928a5.485 5.485 0 0 1 5.49-5.48 5.485 5.485 0 0 1 5.49 5.48A5.485 5.485 0 0 1 36 41.41a5.485 5.485 0 0 1-5.49-5.48zm6.594 10.462v-2.856a7.666 7.666 0 0 0 3.498-1.449l2.02 2.017a10.495 10.495 0 0 1-5.518 2.288zm7.081-3.849l-2.02-2.017a7.64 7.64 0 0 0 1.452-3.492h2.86a10.46 10.46 0 0 1-2.292 5.509z"/></g></svg>