<svg xmlns="http://www.w3.org/2000/svg" width="74" height="77" viewBox="0 0 74 77"><path fill="#1D4472" d="M71.552 45.101h-1.143V34.722a4.885 4.885 0 0 0-2.05-3.982v-1.413c0-2.05-1.655-3.718-3.689-3.718h-.853l3.265-4.83a3.576 3.576 0 0 0-.927-4.938L43.995.618a3.478 3.478 0 0 0-2.642-.555 3.5 3.5 0 0 0-2.257 1.49L19.97 29.847h-5.322l1.284-13.104a.388.388 0 0 1 .242-.326 8.289 8.289 0 0 0 4.038-3.306.382.382 0 0 1 .361-.171l8.348.83a1.091 1.091 0 0 0 1.19-.983 1.095 1.095 0 0 0-.976-1.2l-8.348-.831a2.54 2.54 0 0 0-2.412 1.177 6.094 6.094 0 0 1-2.968 2.43 2.562 2.562 0 0 0-1.641 2.164l-1.306 13.32h-1.387l2.03-20.725a1.352 1.352 0 0 1 1.475-1.22l16.87 1.68a1.092 1.092 0 0 0 1.19-.983 1.095 1.095 0 0 0-.976-1.2l-16.87-1.68c-1.934-.192-3.664 1.237-3.855 3.187L9.299 25.61H6.51c-2.033 0-3.688 1.668-3.688 3.718v.964A4.884 4.884 0 0 0 0 34.723v37.401C.001 74.813 2.171 77 4.84 77h60.732c2.667 0 4.838-2.188 4.838-4.877V61.744h1.143A2.46 2.46 0 0 0 74 59.278v-11.71a2.46 2.46 0 0 0-2.447-2.467zM64.67 27.804c.834 0 1.511.683 1.511 1.523v.559c-.2-.026-.403-.04-.61-.04h-4.618l1.38-2.042h2.337zM40.895 2.789a1.34 1.34 0 0 1 1.874-.358l22.16 15.223a1.37 1.37 0 0 1 .355 1.889l-6.966 10.302h-1.671l3.415-5.05c.554-.82.6-1.863.119-2.722a6.173 6.173 0 0 1-.73-3.784 2.574 2.574 0 0 0-1.1-2.463L46.862 7.935a2.528 2.528 0 0 0-2.677-.133 6.043 6.043 0 0 1-3.761.7 2.568 2.568 0 0 0-2.469 1.107l-13.68 20.236h-1.672L40.895 2.79zm.48 18.632c-4.74 0-8.632 3.726-8.949 8.424H26.91l12.846-19a.388.388 0 0 1 .368-.17 8.22 8.22 0 0 0 5.115-.951.382.382 0 0 1 .399.024l11.487 7.891a.39.39 0 0 1 .169.365 8.396 8.396 0 0 0 .992 5.147.392.392 0 0 1-.022.407l-4.25 6.287h-3.69c-.318-4.698-4.208-8.424-8.949-8.424zm6.765 8.425H34.609c.312-3.488 3.226-6.23 6.765-6.23 3.54 0 6.454 2.742 6.766 6.23zM5 29.326c0-.84.678-1.523 1.511-1.523h2.573l-.2 2.042H5v-.518zm-2.822 5.396c0-1.479 1.194-2.682 2.661-2.682h60.732c1.467 0 2.66 1.203 2.66 2.682v3.045H2.179v-3.045zm66.054 37.401c0 1.48-1.194 2.683-2.661 2.683H4.839c-1.467 0-2.66-1.204-2.66-2.683V69.08h5.869c.6 0 1.088-.491 1.088-1.097s-.487-1.097-1.088-1.097h-5.87V39.96h66.054v5.14h-10.35c-3.26 0-6.085 1.916-7.425 4.69l-.014.027-.033.072c-.16.342-.298.696-.41 1.061l-.002.003c-.24.78-.37 1.61-.37 2.469 0 4.588 3.703 8.321 8.254 8.321h10.35v5.14H15.017c-.601 0-1.088.492-1.088 1.098 0 .606.487 1.097 1.088 1.097h53.215v3.044zm3.59-12.845c0 .15-.121.272-.27.272h-13.67c-2.303 0-4.312-1.3-5.343-3.209a6.253 6.253 0 0 1-.365-.814 6.142 6.142 0 0 1-.37-2.104 6.145 6.145 0 0 1 .735-2.918c1.03-1.91 3.04-3.21 5.344-3.21h13.669c.149 0 .27.123.27.273v11.71z"/></svg>