<svg xmlns="http://www.w3.org/2000/svg" width="77" height="65" viewBox="0 0 77 65"><g fill="#1D4472"><path d="M76.269 59.322l-5.874-5.904h.383c2.377 0 4.311-1.944 4.311-4.333V4.35c0-2.39-1.934-4.333-4.31-4.333H4.31C1.934.018 0 1.96 0 4.35v4.455C0 9.399.478 9.88 1.069 9.88c.59 0 1.068-.48 1.068-1.074V4.35c0-1.205.975-2.185 2.174-2.185h66.467c1.199 0 2.174.98 2.174 2.185v44.733a2.182 2.182 0 0 1-2.174 2.185H68.19l.01.007a2.47 2.47 0 0 0-1.397-.429 2.47 2.47 0 0 0-1.402.434l.015-.012h-.548l-3.158-3.174a16.236 16.236 0 0 0 4.022-10.747c0-4.356-1.688-8.451-4.752-11.532a16.534 16.534 0 0 0-1.196-1.09 16.052 16.052 0 0 0-10.277-3.686 16.1 16.1 0 0 0-6.934 1.555 16.241 16.241 0 0 0-4.54 3.221l-.13.136c-.052.053-.105.106-.156.16l-.088.095c-.066.07-.132.141-.196.212l-.042.048a16.236 16.236 0 0 0-4.14 10.881c0 3.934 1.377 7.654 3.9 10.607l.005.006c.072.084.145.166.218.249l.061.07.16.172.125.135.038.04a16.85 16.85 0 0 0 .576.575l.073.069a16.693 16.693 0 0 0 .623.556l.075.063c.11.093.222.184.334.273l.01.009a16.23 16.23 0 0 0 1.566 1.098H4.311a2.182 2.182 0 0 1-2.174-2.185V15.612c0-.594-.478-1.075-1.068-1.075-.59 0-1.069.481-1.069 1.075v33.472c0 2.39 1.934 4.334 4.31 4.334h24.595l-.913 3.797h-4.05c-1.897 0-3.441 1.552-3.441 3.46v1.968c0 .997.806 1.808 1.798 1.808h30.49c.992 0 1.8-.811 1.8-1.808v-1.969c0-1.907-1.545-3.459-3.442-3.459h-4.05l-.913-3.797h.532a16.34 16.34 0 0 0 5.581 0H63.31a2.5 2.5 0 0 0-.373 1.315c0 .67.26 1.301.731 1.775l7.7 7.74a2.474 2.474 0 0 0 1.766.734 2.47 2.47 0 0 0 1.765-.735l1.37-1.376a2.5 2.5 0 0 0 .73-1.775 2.5 2.5 0 0 0-.73-1.774zm-45.165-5.904h12.881l.913 3.797H30.19l.913-3.797zm15.151 5.945h4.891c.72 0 1.305.589 1.305 1.311v1.628H22.638v-1.628a1.31 1.31 0 0 1 1.304-1.31h22.313zm10.972-10.17c-.18.12-.362.234-.546.343l-.022.014a14.03 14.03 0 0 1-7.152 1.952c-2.48 0-4.96-.653-7.161-1.958a13.955 13.955 0 0 1-.569-.356l-.038-.025a14.14 14.14 0 0 1-1.08-.796l-.123-.103a14.028 14.028 0 0 1-.377-.325c-.048-.042-.096-.084-.143-.128a15.11 15.11 0 0 1-.45-.43l-.02-.02c-5.494-5.52-5.494-14.504 0-20.025 5.492-5.521 14.43-5.52 19.922 0a14.08 14.08 0 0 1 3.974 7.913c.1.69.152 1.39.152 2.1a14.103 14.103 0 0 1-4.6 10.465l-.136.123a14.15 14.15 0 0 1-.382.328l-.122.103c-.349.282-.707.547-1.074.791l-.053.035zm.74 2.076c.54-.332 1.06-.696 1.562-1.094l.03-.024a16.64 16.64 0 0 0 .64-.537l1.647 1.655h-3.878zm16.79 10.083l-1.37 1.376a.356.356 0 0 1-.507 0l-7.7-7.74a.36.36 0 0 1 0-.51l1.37-1.376a.356.356 0 0 1 .507 0l7.7 7.74a.36.36 0 0 1 0 .51z"/><path d="M63.112 12.603l-4.796-.364a1.07 1.07 0 0 0-1.146.99 1.072 1.072 0 0 0 .985 1.152l2.267.172-8.417 6.682c.901.139 1.784.353 2.641.64l7.215-5.727-.099 2.425a1.072 1.072 0 0 0 1.069 1.118c.57 0 1.043-.453 1.067-1.03l.202-4.943a1.072 1.072 0 0 0-.988-1.115zM39.778 22.837a1.064 1.064 0 0 0-1.325 0l-10.962 8.702-5.937-4.713a1.064 1.064 0 0 0-1.325 0L9.058 35.694a1.078 1.078 0 0 0-.176 1.509 1.065 1.065 0 0 0 1.5.177l10.51-8.342 5.936 4.712c.388.309.937.309 1.325 0l9.515-7.552c.026-.03.053-.058.08-.086.05-.054.103-.107.155-.16l.13-.136a16.38 16.38 0 0 1 2.72-2.205l-.975-.774z"/><path d="M67.921 4.744H7.168a2.475 2.475 0 0 0-2.466 2.479v34.232c0 1.45 1.174 2.63 2.617 2.63H31.66c.59 0 1.069-.48 1.069-1.074 0-.593-.479-1.074-1.07-1.074H7.32a.481.481 0 0 1-.48-.482V11.189h61.41v30.266a.481.481 0 0 1-.48.482h-.69c-.59 0-1.069.48-1.069 1.074 0 .593.479 1.074 1.069 1.074h.69a2.626 2.626 0 0 0 2.617-2.63V7.223a2.475 2.475 0 0 0-2.466-2.48zm.329 4.297H6.84V7.223a.33.33 0 0 1 .328-.331h60.753a.33.33 0 0 1 .329.33v1.819z"/><path d="M49.548 24.868c-6.86 0-12.44 5.61-12.44 12.504 0 6.894 5.58 12.503 12.44 12.503 6.859 0 12.44-5.609 12.44-12.503 0-6.895-5.581-12.504-12.44-12.504zm0 22.74c-5.616 0-10.184-4.592-10.184-10.236 0-5.645 4.568-10.237 10.184-10.237 5.615 0 10.184 4.592 10.184 10.237 0 5.644-4.569 10.236-10.184 10.236z"/><path d="M50.14 36.062V31.97c1.404.1 1.925.746 2.406.746.602 0 .883-.766.883-1.149 0-.988-1.925-1.41-3.289-1.451v-.544c0-.242-.3-.464-.601-.464-.341 0-.582.222-.582.464v.584c-1.905.202-3.81 1.21-3.81 3.749 0 2.58 2.005 3.305 3.81 3.95v4.737c-2.045-.162-2.586-1.572-3.248-1.572-.501 0-.923.665-.923 1.148 0 .988 1.685 2.338 4.171 2.379v.624c0 .242.24.464.582.464.3 0 .601-.222.601-.464v-.685c2.166-.302 3.65-1.673 3.65-4.152 0-2.74-1.905-3.627-3.65-4.272zm-1.062-.383c-1.063-.404-1.925-.827-1.925-1.976 0-1.048.802-1.552 1.925-1.693v3.669zm.942 6.872V38.3c.983.423 1.765.987 1.764 2.257 0 1.149-.681 1.794-1.764 1.995z"/></g></svg>