<svg xmlns="http://www.w3.org/2000/svg" width="72" height="77" viewBox="0 0 72 77"><g fill="#1D4472"><path d="M36 0c-.606 0-1.097.491-1.097 1.098v5.771a1.097 1.097 0 1 0 2.194 0V1.098C37.097.49 36.606 0 36 0zm34.754 34.776h-5.768a1.097 1.097 0 0 0 0 2.196h5.768a1.097 1.097 0 0 0 0-2.196zm-63.74 0H1.246a1.097 1.097 0 0 0 0 2.196h5.768a1.097 1.097 0 0 0 0-2.196zM61.35 59.689l-4.078-4.082a1.096 1.096 0 1 0-1.551 1.553l4.078 4.08a1.093 1.093 0 0 0 1.551 0 1.098 1.098 0 0 0 0-1.551zM16.28 14.588l-4.079-4.08a1.096 1.096 0 1 0-1.551 1.551l4.078 4.082a1.093 1.093 0 0 0 1.552 0 1.098 1.098 0 0 0 0-1.553zm45.07-4.081a1.096 1.096 0 0 0-1.55 0l-4.08 4.081a1.098 1.098 0 0 0 1.552 1.553l4.078-4.082a1.098 1.098 0 0 0 0-1.552zM16.28 55.608a1.096 1.096 0 0 0-1.552 0l-4.078 4.08a1.098 1.098 0 0 0 1.551 1.553l4.079-4.081a1.098 1.098 0 0 0 0-1.552zm39.878-25.564a1.096 1.096 0 1 0-2.154.416 18.59 18.59 0 0 1 .333 3.5 18.19 18.19 0 0 1-3.706 11.06c-3.694 4.882-5.826 10.586-6.179 16.515H27.548a30.41 30.41 0 0 0-.764-5.242 29.796 29.796 0 0 0-.95-3.204 29.15 29.15 0 0 0-1.548-3.546 28.418 28.418 0 0 0-2.774-4.336 18.17 18.17 0 0 1-3.848-11.34c.023-4.768 1.95-9.314 5.425-12.8 3.475-3.484 8.013-5.422 12.779-5.456 6.447-.041 12.325 3.203 15.726 8.69a1.096 1.096 0 1 0 1.864-1.158 20.667 20.667 0 0 0-7.38-7.086 20.523 20.523 0 0 0-10.226-2.641c-5.346.038-10.43 2.204-14.316 6.101-3.886 3.897-6.04 8.99-6.066 14.34-.023 4.646 1.468 9.037 4.31 12.696a26.214 26.214 0 0 1 2.559 4.001 26.953 26.953 0 0 1 1.43 3.278c.347.965.643 1.963.88 2.967.4 1.683.643 3.421.725 5.166a1.85 1.85 0 0 0 1.846 1.765v8.352a4.772 4.772 0 0 0 4.765 4.768h8.03a4.772 4.772 0 0 0 4.765-4.768V63.73a1.852 1.852 0 0 0 1.846-1.765c.272-5.601 2.261-11.002 5.754-15.62a20.369 20.369 0 0 0 4.15-12.386 20.73 20.73 0 0 0-.372-3.915zm-16.143 44.61h-8.03a2.573 2.573 0 0 1-2.544-2.22h13.118a2.573 2.573 0 0 1-2.544 2.22zm2.57-9.277h-4.44a1.097 1.097 0 0 0 0 2.195h4.44v2.667h-13.17v-2.667h1.856a1.097 1.097 0 0 0 0-2.195h-1.857V63.73h13.172v1.647z"/><path d="M37.226 36.399l-.098-.037V29.99l.16.012c1.32.094 2.133.5 2.726.798.35.176.628.314.872.314.77 0 1.173-1.018 1.173-1.565 0-.743-.87-1.21-1.6-1.472-.858-.307-2.049-.51-3.186-.544l-.145-.004v-.958c0-.269-.38-.542-.752-.542-.446 0-.722.281-.722.542v1.007l-.134.015c-1.678.176-5.579 1.06-5.579 5.446 0 3.759 2.982 4.82 5.613 5.756l.1.035v7.339l-.162-.013c-1.969-.154-3.023-1.051-3.792-1.706-.42-.358-.751-.64-1.067-.64-.635 0-1.233.882-1.233 1.565 0 1.346 2.379 3.34 6.106 3.4l.148.002v1.08c0 .261.276.543.722.543.372 0 .752-.274.752-.542v-1.154l.13-.018c3.395-.472 5.342-2.677 5.342-6.049 0-3.93-2.655-5.237-5.374-6.237zm-1.392-.496l-.203-.077c-1.632-.616-2.983-1.274-2.983-3.088 0-1.504 1.043-2.43 3.018-2.677l.168-.02v5.862zm1.29 10.19l-.177.033V39.37l.21.09c1.42.609 2.736 1.456 2.736 3.507 0 1.685-.983 2.795-2.768 3.126z"/></g></svg>